<?xml version="1.0" standalone="no"?>
<!DOCTYPE svg PUBLIC "-//W3C//DTD SVG 20010904//EN"
 "http://www.w3.org/TR/2001/REC-SVG-20010904/DTD/svg10.dtd">
<svg version="1.0" xmlns="http://www.w3.org/2000/svg"
 width="366.000000pt" height="366.000000pt" viewBox="0 0 366.000000 366.000000"
 preserveAspectRatio="xMidYMid meet">
<metadata>
Created by potrace 1.11, written by Peter Selinger 2001-2013
</metadata>
<g transform="translate(0.000000,366.000000) scale(0.100000,-0.100000)"
fill="#000000" stroke="none">
<path d="M1490 3319 c-256 -24 -470 -262 -470 -523 l0 -73 -41 -6 c-148 -20
-290 -174 -306 -333 l-6 -57 30 22 c42 31 101 38 148 16 20 -10 39 -23 41 -30
3 -8 60 17 158 69 l154 81 4 54 c4 48 10 59 46 93 38 35 46 38 98 38 54 0 59
-2 96 -40 36 -39 40 -50 42 -114 1 -27 10 -33 162 -106 150 -72 162 -76 172
-59 27 43 90 56 172 37 10 -2 66 51 144 135 116 124 128 140 118 160 -30 63
-20 116 32 166 60 59 144 53 206 -14 21 -23 25 -36 25 -92 l0 -66 160 -131
160 -131 35 17 c40 20 67 22 104 8 24 -9 25 -8 16 15 -47 123 -175 215 -311
223 l-65 4 -11 65 c-28 160 -135 280 -288 323 -66 18 -170 17 -220 -2 -22 -8
-47 -18 -55 -21 -10 -4 -27 12 -53 53 -96 149 -297 238 -497 219z"/>
<path d="M2344 2830 c-57 -23 -72 -104 -28 -145 40 -37 94 -34 128 6 14 17 26
40 26 52 0 28 -36 87 -52 87 -7 0 -22 2 -33 5 -11 2 -30 0 -41 -5z"/>
<path d="M2440 2623 c-17 -9 -44 -12 -82 -9 l-57 4 -130 -142 c-96 -106 -127
-146 -120 -157 17 -28 10 -115 -12 -143 -44 -57 -126 -73 -186 -36 -38 23 -55
51 -62 104 l-6 39 -169 79 -169 79 -24 -23 c-34 -32 -119 -32 -160 -2 l-29 22
-157 -85 c-148 -80 -157 -86 -157 -114 0 -82 -55 -139 -133 -139 l-51 0 43
-44 c24 -24 73 -59 108 -77 58 -30 74 -33 152 -34 47 0 100 3 116 8 28 7 31 5
55 -40 13 -27 50 -73 81 -104 187 -186 476 -183 663 5 28 28 56 60 62 70 10
19 11 19 56 1 63 -23 166 -18 229 13 48 23 73 44 106 86 l21 26 49 -24 c81
-40 121 -49 197 -44 127 9 242 81 300 189 25 45 27 51 10 45 -68 -27 -131 -7
-172 54 -20 29 -23 44 -19 87 l5 52 -155 128 c-86 70 -161 131 -167 134 -6 3
-22 0 -36 -8z"/>
<path d="M1284 2597 c-21 -19 -27 -32 -27 -67 0 -35 6 -48 27 -67 59 -51 146
-11 146 67 0 78 -87 118 -146 67z"/>
<path d="M2873 2372 c-49 -38 -46 -114 6 -145 16 -9 36 -17 45 -17 52 0 103
64 90 115 -14 57 -95 84 -141 47z"/>
<path d="M1900 2343 c-62 -23 -81 -103 -35 -148 55 -55 149 -17 149 61 0 55
-66 105 -114 87z"/>
<path d="M743 2314 c-85 -42 -56 -164 39 -164 78 0 117 87 66 143 -30 33 -66
40 -105 21z"/>
<path d="M385 1291 c-69 -18 -105 -59 -105 -120 0 -67 28 -96 127 -132 69 -26
93 -45 93 -74 0 -50 -61 -65 -145 -37 -67 23 -75 19 -75 -35 0 -29 4 -33 38
-42 73 -18 109 -21 157 -12 88 16 136 100 100 175 -17 36 -39 49 -177 109 -42
18 -52 53 -21 78 21 18 98 16 145 -4 35 -15 36 -14 42 6 14 51 7 66 -31 76
-60 16 -115 20 -148 12z"/>
<path d="M1200 1250 c0 -39 1 -40 35 -40 34 0 35 1 35 40 0 39 -1 40 -35 40
-34 0 -35 -1 -35 -40z"/>
<path d="M2145 1278 c-3 -7 -4 -108 -3 -223 l3 -210 80 -3 c113 -5 161 5 197
37 26 23 32 37 36 84 4 54 3 58 -31 92 l-35 35 21 39 c18 32 20 45 12 76 -16
63 -48 79 -170 83 -83 3 -106 1 -110 -10z m183 -74 c24 -17 29 -53 10 -72 -7
-7 -36 -12 -65 -12 l-53 0 0 43 c0 24 3 47 7 50 12 13 79 7 101 -9z m42 -183
c15 -29 12 -77 -6 -92 -10 -9 -41 -14 -78 -14 l-61 0 -3 63 -3 62 70 0 c59 0
72 -3 81 -19z"/>
<path d="M3237 1223 c-4 -3 -7 -19 -7 -35 0 -17 -5 -28 -14 -28 -15 0 -26 -21
-26 -51 0 -12 7 -19 19 -19 17 0 19 -10 23 -105 4 -124 16 -144 92 -152 44 -5
46 -5 46 21 0 14 1 29 2 34 1 4 -11 9 -28 12 l-29 5 -3 92 -3 92 33 3 c29 3
33 6 33 33 0 27 -4 30 -32 33 -30 3 -33 6 -33 38 0 32 -2 34 -33 34 -19 0 -37
-3 -40 -7z"/>
<path d="M647 1153 c-4 -3 -7 -109 -7 -235 l0 -229 38 3 37 3 3 83 c3 80 3 82
24 71 36 -20 115 -6 149 27 51 49 63 161 23 221 -37 57 -116 78 -175 48 -26
-14 -30 -14 -35 0 -6 15 -45 21 -57 8z m196 -85 c27 -32 23 -113 -8 -143 -27
-28 -42 -30 -79 -14 -31 14 -50 68 -42 113 13 70 85 95 129 44z"/>
<path d="M994 1147 c-2 -7 -3 -78 -2 -157 l3 -145 35 0 35 0 3 105 c3 114 13
136 61 142 21 2 27 9 29 36 4 37 -11 41 -58 17 -25 -13 -29 -13 -34 0 -7 19
-65 20 -72 2z"/>
<path d="M1200 1001 l0 -161 35 0 36 0 -3 158 -3 157 -32 3 -33 3 0 -160z"/>
<path d="M1344 1147 c-2 -7 -3 -78 -2 -157 l3 -145 35 0 35 0 5 115 c5 111 6
115 30 127 35 16 69 6 81 -24 5 -13 9 -69 9 -124 l0 -99 36 0 36 0 -4 131 -3
131 -33 29 c-35 31 -85 39 -124 18 -14 -8 -23 -8 -31 0 -15 15 -67 14 -73 -2z"/>
<path d="M1745 1151 c-67 -29 -95 -121 -56 -186 17 -29 19 -39 9 -55 -10 -15
-10 -27 -1 -50 9 -25 9 -32 -2 -36 -23 -9 -37 -57 -26 -87 28 -73 192 -87 257
-22 17 17 24 35 24 64 0 48 -30 76 -93 86 -112 17 -128 29 -51 38 77 8 123 74
109 156 -6 34 -4 39 15 44 29 8 25 53 -5 49 -33 -4 -78 -3 -120 2 -22 3 -49 2
-60 -3z m87 -68 c36 -32 10 -123 -35 -123 -30 0 -57 31 -57 67 0 63 50 94 92
56z m40 -284 c24 -13 23 -36 -1 -49 -27 -14 -114 -13 -129 2 -16 16 -15 55 1
62 17 7 106 -3 129 -15z"/>
<path d="M2582 1144 c-48 -24 -75 -69 -80 -129 -8 -99 47 -165 142 -172 94 -7
156 46 164 140 5 65 -16 117 -61 149 -40 29 -121 34 -165 12z m125 -66 c7 -6
18 -27 24 -48 10 -32 9 -44 -7 -76 -36 -74 -116 -69 -141 9 -31 92 56 172 124
115z"/>
<path d="M2932 1144 c-48 -24 -75 -69 -80 -129 -8 -99 47 -165 142 -172 94 -7
156 46 164 140 5 65 -16 117 -61 149 -40 29 -121 34 -165 12z m125 -66 c7 -6
18 -27 24 -48 10 -32 9 -44 -7 -76 -36 -74 -116 -69 -141 9 -31 92 56 172 124
115z"/>
<path d="M30 560 c0 -5 14 -10 30 -10 l30 0 0 -80 c0 -47 4 -80 10 -80 6 0 10
33 10 80 0 79 0 80 25 80 14 0 25 5 25 10 0 6 -28 10 -65 10 -37 0 -65 -4 -65
-10z"/>
<path d="M240 480 c0 -53 4 -90 10 -90 6 0 10 16 10 35 0 28 4 35 20 35 13 0
26 -12 37 -35 9 -19 23 -35 30 -35 10 0 9 9 -6 38 -16 31 -17 39 -5 50 8 7 14
26 14 42 0 35 -23 50 -74 50 l-36 0 0 -90z m85 35 c0 -27 -4 -30 -32 -33 -32
-3 -33 -2 -33 33 0 35 1 36 33 33 28 -3 32 -6 32 -33z"/>
<path d="M481 548 c-4 -13 -18 -49 -30 -81 -23 -64 -25 -77 -12 -77 5 0 12 11
15 25 5 21 12 25 45 25 33 0 40 -4 45 -25 4 -14 11 -25 16 -25 14 0 14 -2 -21
94 -17 48 -35 86 -40 86 -5 0 -13 -10 -18 -22z m36 -53 c11 -34 11 -35 -18
-35 -33 0 -32 -2 -18 39 14 40 23 39 36 -4z"/>
<path d="M650 480 l0 -90 40 0 c46 0 95 21 104 45 8 21 8 69 0 90 -9 24 -58
45 -104 45 l-40 0 0 -90z m110 50 c45 -45 11 -120 -55 -120 l-35 0 0 70 0 70
35 0 c22 0 43 -8 55 -20z"/>
<path d="M890 480 c0 -53 4 -90 10 -90 6 0 10 37 10 90 0 53 -4 90 -10 90 -6
0 -10 -37 -10 -90z"/>
<path d="M990 560 c0 -5 11 -10 25 -10 25 0 25 -1 25 -80 0 -47 4 -80 10 -80
6 0 10 33 10 80 0 79 0 80 25 80 14 0 25 5 25 10 0 6 -27 10 -60 10 -33 0 -60
-4 -60 -10z"/>
<path d="M1190 480 c0 -53 4 -90 10 -90 6 0 10 37 10 90 0 53 -4 90 -10 90 -6
0 -10 -37 -10 -90z"/>
<path d="M1345 558 c-11 -6 -26 -18 -32 -26 -14 -17 -17 -69 -7 -97 8 -19 55
-45 84 -45 33 0 80 53 80 90 0 22 -9 41 -29 61 -31 30 -62 36 -96 17z m85 -28
c43 -43 11 -120 -49 -120 -34 0 -61 31 -61 70 0 63 67 93 110 50z"/>
<path d="M1560 480 c0 -105 18 -123 22 -22 l3 67 43 -67 c24 -38 48 -68 53
-68 5 0 9 41 9 90 0 105 -18 123 -22 23 l-3 -67 -44 67 c-24 37 -47 67 -52 67
-5 0 -9 -40 -9 -90z"/>
<path d="M1805 493 c-16 -43 -30 -84 -33 -90 -2 -7 1 -13 7 -13 6 0 13 11 17
25 5 21 12 25 45 25 33 0 40 -4 45 -25 6 -26 24 -35 23 -12 -1 24 -55 161 -66
164 -5 2 -23 -31 -38 -74z m61 -30 c-2 -2 -15 -3 -29 -1 -25 3 -25 3 -10 38
l15 35 15 -34 c8 -18 12 -35 9 -38z"/>
<path d="M1990 480 l0 -90 50 0 c28 0 50 5 50 10 0 6 -18 10 -40 10 l-40 0 0
80 c0 47 -4 80 -10 80 -6 0 -10 -37 -10 -90z"/>
<path d="M2280 480 l0 -90 55 0 c30 0 55 5 55 10 0 6 -20 10 -45 10 -45 0 -45
0 -45 35 0 33 2 35 35 35 19 0 35 5 35 10 0 6 -16 10 -35 10 -31 0 -35 3 -35
25 0 23 4 25 45 25 25 0 45 5 45 10 0 6 -25 10 -55 10 l-55 0 0 -90z"/>
<path d="M2460 563 c0 -3 11 -21 25 -39 14 -18 25 -36 25 -41 0 -5 -11 -25
-25 -45 -27 -40 -30 -48 -16 -48 5 0 19 16 32 36 24 40 20 42 65 -20 26 -38
25 -8 -2 33 l-27 41 27 41 c15 22 24 44 21 47 -4 4 -13 -2 -21 -13 -41 -62
-39 -61 -63 -21 -20 32 -41 47 -41 29z"/>
<path d="M2695 493 c-16 -43 -30 -84 -33 -90 -2 -7 1 -13 7 -13 6 0 13 11 17
25 5 21 12 25 45 25 33 0 40 -4 45 -25 6 -26 24 -35 23 -12 -1 24 -55 161 -66
164 -5 2 -23 -31 -38 -74z m61 -30 c-2 -2 -15 -3 -29 -1 -25 3 -25 3 -10 38
l15 35 15 -34 c8 -18 12 -35 9 -38z"/>
<path d="M2897 528 c-4 -24 -9 -64 -13 -90 -4 -29 -2 -48 4 -48 10 0 22 55 22
103 0 39 13 34 37 -15 l20 -43 23 45 c23 43 24 44 31 20 4 -14 7 -44 8 -67 1
-25 6 -43 12 -43 8 0 10 21 5 73 -12 124 -20 132 -55 60 l-23 -48 -24 48 c-14
26 -28 47 -33 47 -5 0 -11 -19 -14 -42z"/>
<path d="M3140 480 c0 -53 4 -90 10 -90 6 0 10 14 10 30 0 27 3 30 30 30 34 0
70 31 70 60 0 33 -35 60 -80 60 l-40 0 0 -90z m94 48 c16 -26 -4 -52 -43 -56
-30 -3 -31 -2 -31 38 0 40 1 41 31 38 18 -2 37 -11 43 -20z"/>
<path d="M3340 480 l0 -90 50 0 c28 0 50 5 50 10 0 6 -18 10 -40 10 l-40 0 0
80 c0 47 -4 80 -10 80 -6 0 -10 -37 -10 -90z"/>
<path d="M3520 480 l0 -90 50 0 c28 0 50 5 50 10 0 6 -18 10 -40 10 -39 0 -40
1 -40 35 0 32 2 35 30 35 17 0 30 5 30 10 0 6 -13 10 -30 10 -25 0 -30 4 -30
25 0 23 4 25 40 25 22 0 40 5 40 10 0 6 -22 10 -50 10 l-50 0 0 -90z"/>
</g>
</svg>
